<svg width="24" height="28" viewBox="0 0 24 28" fill="none" xmlns="http://www.w3.org/2000/svg">
<path d="M6.5 1.16666H2.83333C1.82081 1.16666 1 1.98747 1 2.99999V25C1 26.0125 1.82081 26.8333 2.83333 26.8333H6.5C7.51252 26.8333 8.33333 26.0125 8.33333 25V2.99999C8.33333 1.98747 7.51252 1.16666 6.5 1.16666Z" stroke="white" stroke-width="1.5" stroke-linecap="round" stroke-linejoin="round"/>
<path d="M21.1667 1.16666H17.5C16.4875 1.16666 15.6667 1.98747 15.6667 2.99999V25C15.6667 26.0125 16.4875 26.8333 17.5 26.8333H21.1667C22.1792 26.8333 23 26.0125 23 25V2.99999C23 1.98747 22.1792 1.16666 21.1667 1.16666Z" stroke="white" stroke-width="1.5" stroke-linecap="round" stroke-linejoin="round"/>
</svg>
